<svg width="64"
  height="64"
  viewBox="0 0 64 64"
  fill="none"
  xmlns="http://www.w3.org/2000/svg">
  <!-- Background -->
  <!-- <circle cx="32" cy="32" r="32" fill="white">
  </circle> -->
  <!-- Right Arm, Below Guitar -->
  <path d="M20 26L25.9251 27.8231C26.3062 27.9404 26.7027 28 27.1015 28H31.9839C32.3143 28 32.6313 27.8687 32.865 27.635V27.635C33.2442 27.2558 33.3382 26.6764 33.0984 26.1967L33 26"
    stroke="#1A1A1A"
    stroke-width="1.5"
    stroke-linecap="round">
  </path>
  <!-- Body -->
  <rect x="19.375"
    y="20.125"
    width="1.25"
    height="22.75"
    fill="#1A1A1A"/>
  <!-- Guitar Neck -->
  <path fill-rule="evenodd"
    clip-rule="evenodd"
    d="M23.3439 30.0997L36.5654 23.0074C36.9429 22.8049 37.2478 22.4897 37.4376 22.1058C37.753 21.4679 38.3754 21.0382 39.0836 20.9693L43.5081 20.5389C43.782 20.5122 44.0463 20.6482 44.1839 20.8866C44.345 21.1655 44.2955 21.5182 44.064 21.7421L43.3785 22.4049C43.1155 22.6591 42.7856 22.8331 42.4272 22.9064L42.1128 22.9708C41.6648 23.0625 41.2522 23.28 40.9235 23.5979L40.8255 23.6926C40.2791 24.2209 39.4956 24.4238 38.7615 24.2271C38.2072 24.0786 37.6166 24.1563 37.1196 24.4433L24.0394 31.9951L23.0032 30.2004C23.1214 30.1907 23.2375 30.1568 23.3439 30.0997Z"
    fill="#FFF200"/>
  <!-- Guitar Body -->
  <path fill-rule="evenodd"
    clip-rule="evenodd"
    d="M44.184 20.8866C44.345 21.1655 44.2956 21.5183 44.064 21.7421L43.3785 22.4049C43.1156 22.6592 42.7856 22.8332 42.4273 22.9065L42.1129 22.9708C41.6649 23.0625 41.2523 23.28 40.9236 23.5979L40.8256 23.6926C40.2792 24.221 39.4957 24.4238 38.7615 24.2271C38.2072 24.0786 37.6166 24.1564 37.1197 24.4433L24.0394 31.9952L23.0032 30.2005C22.9041 30.2087 22.8034 30.1999 22.7056 30.1737C22.482 30.1138 22.2908 29.9664 22.175 29.766C21.9854 29.4375 22.0261 29.0227 22.2777 28.739L22.7127 28.2485C22.8404 28.1045 22.9904 27.982 23.1571 27.8858L23.5039 27.6856C23.6798 27.584 23.8298 27.4428 23.9417 27.2732L24.0922 27.0453C24.2732 26.7712 24.2838 26.4184 24.1195 26.134C23.9746 25.8829 23.7137 25.7208 23.4244 25.7022L22.7385 25.6579C22.3146 25.6306 21.8922 25.7294 21.5243 25.9417L20.3564 26.616L17.7098 28.563C17.0468 29.0508 16.3124 29.4333 15.5327 29.6971L14.2942 30.116L11.9708 30.5915C11.4577 30.6965 10.9649 30.8835 10.5114 31.1454C9.55313 31.6986 8.80605 32.576 8.40341 33.6066C8.05581 34.4963 7.96791 35.4799 8.1594 36.4157L8.27517 36.9814C8.42409 37.7091 8.68934 38.4081 9.06073 39.0513L9.28332 39.4369C9.59327 39.9737 9.96789 40.4705 10.3988 40.9162C10.9187 41.4539 11.5154 41.9118 12.1694 42.2748L13.0603 42.7694C13.5026 43.0149 13.9939 43.1592 14.4988 43.1918C15.1719 43.2352 15.8428 43.0784 16.427 42.7411L16.8852 42.4765C17.4215 42.1669 17.8977 41.7634 18.2911 41.2852L19.9481 39.2711C20.2537 38.8996 20.6236 38.5861 21.0402 38.3456C21.4822 38.0904 21.9688 37.9219 22.474 37.8491L23.7461 37.6658C24.1611 37.606 24.5609 37.4676 24.9241 37.2579L25.6594 36.8334C25.9456 36.6681 26.1545 36.396 26.24 36.0768L26.3166 35.7907C26.4097 35.4435 26.2701 35.0757 25.9701 34.8776C25.7062 34.7034 25.3664 34.6932 25.0924 34.8513L24.7617 35.0423C24.4279 35.235 24.0312 35.2872 23.659 35.1875L23.3573 35.1067C23.0481 35.0238 22.7844 34.8215 22.6244 34.5442C22.4643 34.267 22.4209 33.9375 22.5038 33.6283L22.5574 33.4282C22.6746 32.9909 22.9607 32.618 23.3528 32.3916L37.1197 24.4433C37.6166 24.1564 38.2072 24.0786 38.7615 24.2272C39.4957 24.4239 40.2792 24.221 40.8256 23.6927L40.9236 23.5979C41.2523 23.2801 41.6649 23.0625 42.1129 22.9708L42.4273 22.9065C42.7856 22.8332 43.1156 22.6592 43.3786 22.405L44.064 21.7422C44.2956 21.5183 44.345 21.1655 44.184 20.8866C44.184 20.8866 44.184 20.8866 44.184 20.8866Z"
    fill="#81CB71">
  </path>
  <!-- Guitar Outline (Commented out for now) -->
  <path d="M36.5655 23.0075L23.344 30.0998C23.1483 30.2047 22.92 30.2312 22.7056 30.1737C22.482 30.1138 22.2908 29.9664 22.175 29.766C21.9854 29.4375 22.0261 29.0227 22.2777 28.739L22.7127 28.2485C22.8404 28.1045 22.9904 27.982 23.1571 27.8858L23.5039 27.6856C23.6798 27.584 23.8298 27.4428 23.9417 27.2732L24.0922 27.0453C24.2732 26.7712 24.2838 26.4184 24.1195 26.134C23.9746 25.8829 23.7137 25.7208 23.4244 25.7022L22.7385 25.6579C22.3146 25.6306 21.8922 25.7294 21.5243 25.9417L20.3564 26.616L17.7098 28.563C17.0468 29.0508 16.3124 29.4333 15.5327 29.6971L14.2942 30.116L11.9708 30.5915C11.4577 30.6965 10.9649 30.8835 10.5114 31.1454C9.55313 31.6986 8.80605 32.576 8.40341 33.6066C8.05581 34.4963 7.96791 35.4799 8.1594 36.4157L8.27517 36.9814C8.42409 37.7091 8.68934 38.4081 9.06073 39.0513L9.28332 39.4369C9.59327 39.9737 9.96789 40.4705 10.3988 40.9162C10.9187 41.4539 11.5154 41.9118 12.1694 42.2748L13.0603 42.7694C13.5026 43.0149 13.9939 43.1592 14.4988 43.1918C15.1719 43.2352 15.8428 43.0784 16.427 42.7411L16.8852 42.4765C17.4215 42.1669 17.8977 41.7634 18.2911 41.2852L19.9481 39.2711C20.2537 38.8996 20.6236 38.5861 21.0402 38.3456C21.4822 38.0904 21.9688 37.9219 22.474 37.8491L23.7461 37.6658C24.1611 37.606 24.5609 37.4676 24.9241 37.2579L25.6594 36.8334C25.9456 36.6681 26.1545 36.396 26.24 36.0768L26.3166 35.7907C26.4097 35.4435 26.2701 35.0757 25.9701 34.8776C25.7062 34.7034 25.3664 34.6932 25.0924 34.8513L24.7617 35.0423C24.4279 35.235 24.0312 35.2872 23.659 35.1875L23.3573 35.1067C23.0481 35.0238 22.7844 34.8215 22.6244 34.5442C22.4643 34.267 22.4209 33.9375 22.5038 33.6283L22.5574 33.4282C22.6746 32.9909 22.9607 32.618 23.3528 32.3916L37.1197 24.4433C37.6166 24.1564 38.2072 24.0786 38.7615 24.2272C39.4957 24.4239 40.2792 24.221 40.8256 23.6927L40.9236 23.5979C41.2523 23.2801 41.6649 23.0625 42.1129 22.9708L42.4273 22.9065C42.7856 22.8332 43.1156 22.6592 43.3786 22.405L44.064 21.7422C44.2956 21.5183 44.345 21.1655 44.184 20.8866C44.0464 20.6482 43.7821 20.5123 43.5082 20.539L39.0837 20.9693C38.3755 21.0382 37.7531 21.468 37.4377 22.1058C37.2479 22.4898 36.943 22.805 36.5655 23.0075Z"
    stroke="black"
    stroke-width="0.25"
    stroke-linejoin="round"/>
  <!-- Guitar Accent -->
  <path d="M20.2462 30.1437L20.342 30.0884C20.4799 30.0088 20.6437 29.9872 20.7975 30.0284C21.059 30.0985 21.2412 30.3348 21.2424 30.6055L21.2557 33.5922C21.2574 33.9762 21.3593 34.3531 21.5513 34.6856C21.8439 35.1925 22.3259 35.5623 22.8912 35.7137L23.3743 35.8432L23.5744 35.8968C23.8411 35.9683 23.9994 36.2425 23.9279 36.5092C23.8936 36.6373 23.8098 36.7465 23.695 36.8128L23.6578 36.8342C23.5192 36.9143 23.3545 36.936 23.1998 36.8945L22.6712 36.7529C22.2836 36.649 21.8733 36.6689 21.4976 36.8096L20.2753 37.2676C19.5897 37.5244 18.9878 37.9644 18.5351 38.5398L17.8197 39.4489C17.6485 39.6665 17.5003 39.9013 17.3776 40.1496L16.9503 41.0137C16.8282 41.2605 16.6359 41.4657 16.3974 41.6034L16.2033 41.7155C16.0072 41.8287 15.7742 41.8593 15.5556 41.8007L15.4079 41.7612C15.2838 41.7279 15.178 41.6467 15.1138 41.5355C15.022 41.3766 15.0279 41.1795 15.129 41.0264L15.452 40.5372C15.5368 40.4087 15.6004 40.2674 15.6403 40.1186L15.6716 40.0017C15.7322 39.7755 15.756 39.541 15.7419 39.3073L15.7358 39.2056C15.7097 38.7706 15.5827 38.3477 15.3648 37.9704L13.7718 35.2112C13.4122 34.5882 13.3876 33.8267 13.7065 33.1819C13.8947 32.8012 14.1915 32.4847 14.5593 32.2723L14.7251 32.1766C15.0994 31.9605 15.5188 31.8345 15.9502 31.8086L17.2489 31.7307C17.4336 31.7196 17.6172 31.6954 17.7985 31.6583L18.0335 31.6103C18.7097 31.4719 19.3229 31.1179 19.7808 30.6014L20.031 30.3194C20.0928 30.2496 20.1655 30.1903 20.2462 30.1437Z"
    fill="white"/>
  <!-- Guitar Pickup 1 -->
  <rect x="19.5471"
    y="32.2142"
    width="2.5843"
    height="1"
    rx="0.5"
    transform="rotate(60 19.5471 32.2142)"
    fill="#313131"/>
  <!-- Guitar Pickup 2 -->
  <rect x="16.8729"
    y="33.5824"
    width="2.72734"
    height="1"
    rx="0.5"
    transform="rotate(60 16.8729 33.5824)"
    fill="#313131"/>
  <!-- Right Arm, Above Guitar -->
  <path fill-rule="evenodd"
    clip-rule="evenodd"
    d="M19.25 26.0174C19.2498 26.0059 19.2497 25.9945 19.25 25.9829V26.0174ZM32.25 28.7321C32.6811 28.6741 33.0843 28.4763 33.3953 28.1653C34.0028 27.5578 34.1534 26.6297 33.7692 25.8612L33.6708 25.6645C33.4856 25.294 33.0351 25.1439 32.6646 25.3291C32.4068 25.458 32.2557 25.7154 32.25 25.9848V26.0162C32.2523 26.1238 32.2778 26.2326 32.3292 26.3353L32.4276 26.5321C32.523 26.723 32.4856 26.9537 32.3346 27.1046C32.3088 27.1305 32.2804 27.1532 32.25 27.1725V28.7321Z"
    fill="#1A1A1A">
  </path>
  <!-- Left Arm -->
  <path d="M19.5 26L16.0955 26.3405C15.0714 26.4429 14.1263 26.936 13.4565 27.7174L12.8779 28.3924C12.043 29.3665 11.8731 30.7462 12.4469 31.8938V31.8938C12.8027 32.6054 13.4117 33.1584 14.1544 33.444L19.5 35.5"
    stroke="#1A1A1A"
    stroke-width="1.5"
    stroke-linecap="round">
    <animate values="M19.5 26L16.0955 26.3405C15.0714 26.4429 14.1263 26.936 13.4565 27.7174L12.4591 28.881C11.8779 29.5591 11.7597 30.5194 12.1591 31.3182V31.3182C12.6443 32.2887 13.7601 32.7661 14.7972 32.447L19.5 31;M19.5 26L16.0955 26.3405C15.0714 26.4429 14.1263 26.936 13.4565 27.7174L12.8779 28.3924C12.043 29.3665 11.8731 30.7462 12.4469 31.8938V31.8938C12.8027 32.6054 13.4117 33.1584 14.1544 33.444L19.5 35.5;M19.5 26L16.0955 26.3405C15.0714 26.4429 14.1263 26.936 13.4565 27.7174L13.0592 28.1809C12.1144 29.2832 11.9222 30.8444 12.5715 32.1429V32.1429C12.8523 32.7046 13.2748 33.1832 13.7973 33.5315L19 37;M19.5 26L16.0955 26.3405C15.0714 26.4429 14.1263 26.936 13.4565 27.7174L12.8779 28.3924C12.043 29.3665 11.8731 30.7462 12.4469 31.8938V31.8938C12.8027 32.6054 13.4117 33.1584 14.1544 33.444L19.5 35.5;M19.5 26L16.0955 26.3405C15.0714 26.4429 14.1263 26.936 13.4565 27.7174L12.4591 28.881C11.8779 29.5591 11.7597 30.5194 12.1591 31.3182V31.3182C12.6443 32.2887 13.7601 32.7661 14.7972 32.447L19.5 31"
      attributeName="d"
      dur=".4s"
      repeatCount="indefinite"
      calcMode="discrete"/>
  </path>
  <!-- Legs -->
  <path fill-rule="evenodd"
    clip-rule="evenodd"
    d="M20.315 42.3193C20.3938 42.3557 20.467 42.4061 20.5304 42.4696C20.5698 42.509 20.6042 42.5521 20.6333 42.598L22.4203 45.2785C22.5812 45.5199 22.7197 45.7755 22.834 46.0422L23.9809 48.7184C24.1452 49.1017 24.2583 49.5049 24.3173 49.9177L24.7424 52.894C24.801 53.3041 24.5161 53.684 24.106 53.7425C23.696 53.8011 23.3161 53.5162 23.2575 53.1061L22.8323 50.1299C22.792 49.8474 22.7146 49.5715 22.6022 49.3093L21.4553 46.6331C21.3771 46.4506 21.2823 46.2757 21.1722 46.1105L20 44.3522L18.8277 46.1105C18.7176 46.2757 18.6229 46.4506 18.5447 46.6331L17.3977 49.3093C17.2853 49.5715 17.208 49.8474 17.1676 50.1299L16.7424 53.1061C16.6839 53.5162 16.304 53.8011 15.8939 53.7425C15.4839 53.684 15.1989 53.3041 15.2575 52.894L15.6827 49.9177C15.7417 49.5049 15.8547 49.1017 16.019 48.7184L17.1659 46.0422C17.2802 45.7755 17.4187 45.5199 17.5796 45.2785L19.3666 42.598C19.3957 42.5521 19.4301 42.509 19.4695 42.4696C19.533 42.4061 19.6061 42.3557 19.6849 42.3193C19.8807 42.229 20.1114 42.2248 20.315 42.3193Z"
    fill="#1A1A1A"/>
  <!-- Face -->
  <circle cx="20"
    cy="17"
    r="5.875"
    fill="#1A1A1A">
    <animate attributeName="cx"
      values="20;21"
      dur=".4s"
      repeatCount="indefinite"
      calcMode="discrete" />
    <animate attributeName="cy"
      values="17;18"
      dur=".4s"
      repeatCount="indefinite"
      calcMode="discrete" />
  </circle>
  <!-- Text, Rockin -->
  <path d="M33.8595 38.736C33.8755 38.768 33.8835 38.8027 33.8835 38.84C33.8835 38.8773 33.8648 38.9147 33.8275 38.952C33.7955 38.984 33.7555 39 33.7075 39H32.0675C31.9022 39 31.7875 38.928 31.7235 38.784L31.0355 37.256H30.7075V38.784C30.7075 38.8427 30.6862 38.8933 30.6435 38.936C30.6008 38.9787 30.5502 39 30.4915 39H28.9235C28.8648 39 28.8142 38.9787 28.7715 38.936C28.7288 38.8933 28.7075 38.8427 28.7075 38.784V33.616C28.7075 33.5573 28.7288 33.5067 28.7715 33.464C28.8142 33.4213 28.8648 33.4 28.9235 33.4H31.2915C32.0595 33.4 32.6595 33.5733 33.0915 33.92C33.5235 34.2613 33.7395 34.7547 33.7395 35.4C33.7395 36.04 33.4515 36.544 32.8755 36.912L33.8595 38.736ZM30.7075 34.888V35.736H31.2915C31.4088 35.736 31.4995 35.6987 31.5635 35.624C31.6275 35.544 31.6595 35.4453 31.6595 35.328C31.6595 35.2107 31.6275 35.1093 31.5635 35.024C31.5048 34.9333 31.4142 34.888 31.2915 34.888H30.7075ZM34.405 37.192V36.648C34.405 36.04 34.621 35.5733 35.053 35.248C35.485 34.9227 36.0423 34.76 36.725 34.76C37.4077 34.76 37.965 34.9227 38.397 35.248C38.829 35.5733 39.045 36.04 39.045 36.648V37.192C39.045 37.8053 38.837 38.2747 38.421 38.6C38.005 38.92 37.4397 39.08 36.725 39.08C36.0103 39.08 35.445 38.92 35.029 38.6C34.613 38.2747 34.405 37.8053 34.405 37.192ZM37.085 37.256V36.584C37.085 36.3813 37.0583 36.24 37.005 36.16C36.9517 36.08 36.8583 36.04 36.725 36.04C36.5917 36.04 36.4983 36.08 36.445 36.16C36.3917 36.24 36.365 36.3813 36.365 36.584V37.256C36.365 37.4693 36.3917 37.6133 36.445 37.688C36.4983 37.7627 36.5917 37.8 36.725 37.8C36.8583 37.8 36.9517 37.76 37.005 37.68C37.0583 37.6 37.085 37.4587 37.085 37.256ZM41.5681 36.64V37.2C41.5681 37.3813 41.5921 37.512 41.6401 37.592C41.6881 37.672 41.7628 37.712 41.8641 37.712C41.9655 37.712 42.0348 37.696 42.0721 37.664C42.1095 37.6267 42.1468 37.56 42.1841 37.464C42.2268 37.3627 42.3041 37.312 42.4161 37.312H43.9761C44.0348 37.312 44.0855 37.3333 44.1281 37.376C44.1708 37.4187 44.1921 37.4747 44.1921 37.544C44.1921 37.6133 44.1681 37.7067 44.1201 37.824C44.0721 37.9413 43.9895 38.0747 43.8721 38.224C43.7548 38.3733 43.6108 38.512 43.4401 38.64C43.2695 38.7627 43.0455 38.8667 42.7681 38.952C42.4908 39.0373 42.1841 39.08 41.8481 39.08C41.1815 39.08 40.6401 38.9067 40.2241 38.56C39.8135 38.208 39.6081 37.7227 39.6081 37.104V36.736C39.6081 36.1173 39.8135 35.6347 40.2241 35.288C40.6401 34.936 41.1815 34.76 41.8481 34.76C42.2428 34.76 42.6001 34.8213 42.9201 34.944C43.2401 35.0613 43.4855 35.208 43.6561 35.384C43.8321 35.5547 43.9655 35.7227 44.0561 35.888C44.1468 36.0533 44.1921 36.1813 44.1921 36.272C44.1921 36.3573 44.1708 36.4213 44.1281 36.464C44.0855 36.5067 44.0348 36.528 43.9761 36.528H42.4161C42.3148 36.528 42.2375 36.4747 42.1841 36.368C42.1095 36.208 42.0108 36.128 41.8881 36.128C41.6748 36.128 41.5681 36.2987 41.5681 36.64ZM46.6617 33.536V36.128L47.3657 34.976C47.419 34.8853 47.4964 34.84 47.5977 34.84H49.2137C49.267 34.84 49.3124 34.8587 49.3497 34.896C49.387 34.9333 49.4057 34.976 49.4057 35.024C49.4057 35.072 49.3924 35.1147 49.3657 35.152L48.2697 36.712L49.5657 38.704C49.587 38.736 49.5977 38.776 49.5977 38.824C49.5977 38.8667 49.579 38.9067 49.5417 38.944C49.5044 38.9813 49.459 39 49.4057 39H47.7257C47.619 39 47.5364 38.9547 47.4777 38.864L46.6617 37.504V38.784C46.6617 38.8427 46.6404 38.8933 46.5977 38.936C46.555 38.9787 46.5044 39 46.4457 39H45.0457C44.987 39 44.9364 38.9787 44.8937 38.936C44.851 38.8933 44.8297 38.8427 44.8297 38.784V33.536C44.8297 33.4773 44.851 33.4267 44.8937 33.384C44.9364 33.3413 44.987 33.32 45.0457 33.32H46.4457C46.5044 33.32 46.555 33.3413 46.5977 33.384C46.6404 33.4267 46.6617 33.4773 46.6617 33.536ZM51.7277 39H50.2957C50.237 39 50.1864 38.9787 50.1437 38.936C50.101 38.8933 50.0797 38.8427 50.0797 38.784V35.056C50.0797 34.9973 50.101 34.9467 50.1437 34.904C50.1864 34.8613 50.237 34.84 50.2957 34.84H51.7277C51.7864 34.84 51.837 34.8613 51.8797 34.904C51.9224 34.9467 51.9437 34.9973 51.9437 35.056V38.784C51.9437 38.8427 51.9224 38.8933 51.8797 38.936C51.837 38.9787 51.7864 39 51.7277 39ZM51.9037 33.296V34.264C51.9037 34.3227 51.8824 34.3733 51.8397 34.416C51.797 34.4587 51.7464 34.48 51.6877 34.48H50.3357C50.277 34.48 50.2264 34.4587 50.1837 34.416C50.141 34.3733 50.1197 34.3227 50.1197 34.264V33.296C50.1197 33.2373 50.141 33.1867 50.1837 33.144C50.2264 33.1013 50.277 33.08 50.3357 33.08H51.6877C51.7464 33.08 51.797 33.1013 51.8397 33.144C51.8824 33.1867 51.9037 33.2373 51.9037 33.296ZM57.4558 36.576V38.784C57.4558 38.8427 57.4344 38.8933 57.3918 38.936C57.3491 38.9787 57.2984 39 57.2398 39H55.7118C55.6531 39 55.6024 38.9787 55.5598 38.936C55.5171 38.8933 55.4958 38.8427 55.4958 38.784V36.632C55.4958 36.3387 55.3624 36.192 55.0958 36.192C54.8291 36.192 54.6957 36.3387 54.6957 36.632V38.784C54.6957 38.8427 54.6744 38.8933 54.6318 38.936C54.5891 38.9787 54.5384 39 54.4798 39H52.9598C52.9011 39 52.8504 38.9787 52.8078 38.936C52.7651 38.8933 52.7438 38.8427 52.7438 38.784V35.056C52.7438 34.9973 52.7651 34.9467 52.8078 34.904C52.8504 34.8613 52.9011 34.84 52.9598 34.84H54.3598C54.4184 34.84 54.4691 34.8613 54.5118 34.904C54.5544 34.9467 54.5758 34.9973 54.5758 35.056V35.32C54.7144 35.1547 54.9011 35.0213 55.1358 34.92C55.3758 34.8133 55.6318 34.76 55.9038 34.76C56.3411 34.76 56.7091 34.9147 57.0078 35.224C57.3064 35.528 57.4558 35.9787 57.4558 36.576Z"
    fill="#4AB62C">
    <animate attributeName="opacity"
      values="1;0"
      dur="4s"
      calcMode="discrete"
      repeatCount="indefinite"/>
  </path>
  <!-- Text, Joshin -->
  <path d="M33.6281 41.616V44.896C33.6281 45.6213 33.3854 46.168 32.9001 46.536C32.4201 46.8987 31.8121 47.08 31.0761 47.08C30.3401 47.08 29.7241 46.904 29.2281 46.552C28.7321 46.2 28.4841 45.7227 28.4841 45.12C28.4841 45.072 28.5001 45.032 28.5321 45C28.5694 44.9627 28.6121 44.944 28.6601 44.944H30.2921C30.3774 44.944 30.4414 44.9653 30.4841 45.008C30.5321 45.0453 30.5801 45.1173 30.6281 45.224C30.6761 45.3253 30.7321 45.4 30.7961 45.448C30.8654 45.496 30.9614 45.52 31.0841 45.52C31.3987 45.52 31.5561 45.304 31.5561 44.872V43.024H29.1801C29.1214 43.024 29.0707 43.0027 29.0281 42.96C28.9854 42.9173 28.9641 42.8667 28.9641 42.808V41.616C28.9641 41.5573 28.9854 41.5067 29.0281 41.464C29.0707 41.4213 29.1214 41.4 29.1801 41.4H33.4121C33.4707 41.4 33.5214 41.4213 33.5641 41.464C33.6067 41.5067 33.6281 41.5573 33.6281 41.616ZM34.3894 45.192V44.648C34.3894 44.04 34.6054 43.5733 35.0374 43.248C35.4694 42.9227 36.0267 42.76 36.7094 42.76C37.392 42.76 37.9494 42.9227 38.3814 43.248C38.8134 43.5733 39.0294 44.04 39.0294 44.648V45.192C39.0294 45.8053 38.8214 46.2747 38.4054 46.6C37.9894 46.92 37.424 47.08 36.7094 47.08C35.9947 47.08 35.4294 46.92 35.0134 46.6C34.5974 46.2747 34.3894 45.8053 34.3894 45.192ZM37.0694 45.256V44.584C37.0694 44.3813 37.0427 44.24 36.9894 44.16C36.936 44.08 36.8427 44.04 36.7094 44.04C36.576 44.04 36.4827 44.08 36.4294 44.16C36.376 44.24 36.3494 44.3813 36.3494 44.584V45.256C36.3494 45.4693 36.376 45.6133 36.4294 45.688C36.4827 45.7627 36.576 45.8 36.7094 45.8C36.8427 45.8 36.936 45.76 36.9894 45.68C37.0427 45.6 37.0694 45.4587 37.0694 45.256ZM41.9285 45.848C41.9285 45.7947 41.9152 45.752 41.8885 45.72C41.8192 45.6347 41.5632 45.552 41.1205 45.472C40.6778 45.3867 40.3178 45.24 40.0405 45.032C39.7685 44.8187 39.6325 44.5227 39.6325 44.144C39.6325 43.7653 39.8138 43.44 40.1765 43.168C40.5392 42.896 41.0272 42.76 41.6405 42.76C42.2592 42.76 42.7658 42.888 43.1605 43.144C43.5552 43.4 43.7525 43.6587 43.7525 43.92C43.7525 43.9787 43.7338 44.0293 43.6965 44.072C43.6645 44.1147 43.6245 44.136 43.5765 44.136H42.2325C42.1525 44.136 42.0538 44.0933 41.9365 44.008C41.8192 43.9227 41.7312 43.88 41.6725 43.88C41.5498 43.88 41.4885 43.9227 41.4885 44.008C41.4885 44.0613 41.5018 44.104 41.5285 44.136C41.5978 44.216 41.8885 44.2933 42.4005 44.368C42.9125 44.4427 43.2938 44.608 43.5445 44.864C43.8005 45.1147 43.9285 45.3947 43.9285 45.704C43.9285 46.136 43.7338 46.4747 43.3445 46.72C42.9552 46.9653 42.4032 47.088 41.6885 47.088C41.3098 47.088 40.9738 47.0453 40.6805 46.96C40.3872 46.8747 40.1632 46.768 40.0085 46.64C39.7045 46.3893 39.5525 46.1547 39.5525 45.936C39.5525 45.8773 39.5712 45.8267 39.6085 45.784C39.6458 45.7413 39.6912 45.72 39.7445 45.72H41.1365C41.2112 45.72 41.3072 45.7627 41.4245 45.848C41.5472 45.928 41.6618 45.968 41.7685 45.968C41.8752 45.968 41.9285 45.928 41.9285 45.848ZM46.5326 44.632V46.784C46.5326 46.8427 46.5113 46.8933 46.4686 46.936C46.426 46.9787 46.3753 47 46.3166 47H44.7566C44.698 47 44.6473 46.9787 44.6046 46.936C44.562 46.8933 44.5406 46.8427 44.5406 46.784V41.536C44.5406 41.4773 44.562 41.4267 44.6046 41.384C44.6473 41.3413 44.698 41.32 44.7566 41.32H46.3166C46.3753 41.32 46.426 41.3413 46.4686 41.384C46.5113 41.4267 46.5326 41.4773 46.5326 41.536V43.256C46.8366 42.9253 47.226 42.76 47.7006 42.76C48.1753 42.76 48.5673 42.9147 48.8766 43.224C49.186 43.5333 49.3406 43.984 49.3406 44.576V46.776C49.3406 46.8347 49.3193 46.8853 49.2766 46.928C49.234 46.9707 49.1833 46.992 49.1246 46.992H47.5566C47.498 46.992 47.4473 46.9707 47.4046 46.928C47.362 46.8853 47.3406 46.8347 47.3406 46.776V44.632C47.3406 44.3387 47.2046 44.192 46.9326 44.192C46.666 44.192 46.5326 44.3387 46.5326 44.632ZM51.7511 47H50.3191C50.2605 47 50.2098 46.9787 50.1671 46.936C50.1245 46.8933 50.1031 46.8427 50.1031 46.784V43.056C50.1031 42.9973 50.1245 42.9467 50.1671 42.904C50.2098 42.8613 50.2605 42.84 50.3191 42.84H51.7511C51.8098 42.84 51.8605 42.8613 51.9031 42.904C51.9458 42.9467 51.9671 42.9973 51.9671 43.056V46.784C51.9671 46.8427 51.9458 46.8933 51.9031 46.936C51.8605 46.9787 51.8098 47 51.7511 47ZM51.9271 41.296V42.264C51.9271 42.3227 51.9058 42.3733 51.8631 42.416C51.8205 42.4587 51.7698 42.48 51.7111 42.48H50.3591C50.3005 42.48 50.2498 42.4587 50.2071 42.416C50.1645 42.3733 50.1431 42.3227 50.1431 42.264V41.296C50.1431 41.2373 50.1645 41.1867 50.2071 41.144C50.2498 41.1013 50.3005 41.08 50.3591 41.08H51.7111C51.7698 41.08 51.8205 41.1013 51.8631 41.144C51.9058 41.1867 51.9271 41.2373 51.9271 41.296ZM57.4792 44.576V46.784C57.4792 46.8427 57.4579 46.8933 57.4152 46.936C57.3725 46.9787 57.3219 47 57.2632 47H55.7352C55.6765 47 55.6259 46.9787 55.5832 46.936C55.5405 46.8933 55.5192 46.8427 55.5192 46.784V44.632C55.5192 44.3387 55.3859 44.192 55.1192 44.192C54.8525 44.192 54.7192 44.3387 54.7192 44.632V46.784C54.7192 46.8427 54.6979 46.8933 54.6552 46.936C54.6125 46.9787 54.5619 47 54.5032 47H52.9832C52.9245 47 52.8739 46.9787 52.8312 46.936C52.7885 46.8933 52.7672 46.8427 52.7672 46.784V43.056C52.7672 42.9973 52.7885 42.9467 52.8312 42.904C52.8739 42.8613 52.9245 42.84 52.9832 42.84H54.3832C54.4419 42.84 54.4925 42.8613 54.5352 42.904C54.5779 42.9467 54.5992 42.9973 54.5992 43.056V43.32C54.7379 43.1547 54.9245 43.0213 55.1592 42.92C55.3992 42.8133 55.6552 42.76 55.9272 42.76C56.3645 42.76 56.7325 42.9147 57.0312 43.224C57.3299 43.528 57.4792 43.9787 57.4792 44.576Z"
    fill="#4AB62C">
    <animate attributeName="opacity"
      values="0;1"
      dur="4s"
      calcMode="discrete"
      repeatCount="indefinite"/>
  </path>
</svg>
